<svg xmlns="http://www.w3.org/2000/svg" width="20" height="28" fill="none">
  <path fill="#424242" d="M10 27.61s10-9.772 10-17.187c0-2.735-1.054-5.357-2.929-7.291C15.196 1.198 12.652.112 10 .112s-5.196 1.086-7.071 3.02S0 7.688 0 10.423C0 17.838 10 27.61 10 27.61Zm0-12.03a4.924 4.924 0 0 1-3.536-1.51A5.239 5.239 0 0 1 5 10.422c0-1.367.527-2.679 1.464-3.645A4.924 4.924 0 0 1 10 5.268c1.326 0 2.598.543 3.536 1.51A5.239 5.239 0 0 1 15 10.423a5.239 5.239 0 0 1-1.464 3.646A4.924 4.924 0 0 1 10 15.58Z"/>
</svg>
