<svg xmlns="http://www.w3.org/2000/svg" width="25" height="25" fill="none">
  <g fill="#424242" clip-path="url(#clip0_123_306)">
    <path d="M18.75 10.156h-1.563a2.346 2.346 0 0 0-2.343-2.344V6.25a3.91 3.91 0 0 1 3.906 3.906Z"/>
    <path d="M21.875 10.156h-1.563a5.475 5.475 0 0 0-5.468-5.469V3.125a7.04 7.04 0 0 1 7.031 7.031ZM15.885 16.783l1.75-1.75a1.693 1.693 0 0 1 1.826-.375l2.131.853a1.694 1.694 0 0 1 1.065 1.572v3.876a1.693 1.693 0 0 1-1.785 1.694C5.933 21.723 2.916 9.07 2.356 4.225a1.689 1.689 0 0 1 1.683-1.881h3.807a1.693 1.693 0 0 1 1.571 1.064l.853 2.131a1.693 1.693 0 0 1-.375 1.826l-1.75 1.75s.97 6.822 7.74 7.668Z"/>
  </g>
</svg>
