<svg xmlns="http://www.w3.org/2000/svg" width="26" height="26" fill="none">
  <path fill="url(#a)" fill-rule="evenodd" d="M1.494 1.494a1.875 1.875 0 0 1 2.652 0L14.753 12.1a1.875 1.875 0 0 1 0 2.652L4.146 25.358a1.875 1.875 0 0 1-2.652-2.651l9.281-9.28-9.28-9.282a1.875 1.875 0 0 1 0-2.651Z" clip-rule="evenodd"/>
  <path fill="url(#b)" fill-rule="evenodd" d="M12.101 14.752a1.875 1.875 0 0 1 0-2.652L22.708 1.494a1.875 1.875 0 0 1 2.652 2.651l-9.281 9.281 9.28 9.28a1.875 1.875 0 0 1-2.651 2.652L12.101 14.752Z" clip-rule="evenodd"/>
  <defs>
    <linearGradient id="a" x1="-4.452" x2="32.398" y1="-14.658" y2="-6.499" gradientUnits="userSpaceOnUse">
      <stop stop-color="#976464"/>
      <stop offset="1" stop-color="#CFA5A5"/>
    </linearGradient>
    <linearGradient id="b" x1="-4.452" x2="32.398" y1="-14.658" y2="-6.499" gradientUnits="userSpaceOnUse">
      <stop stop-color="#976464"/>
      <stop offset="1" stop-color="#CFA5A5"/>
    </linearGradient>
  </defs>
</svg>
