<svg xmlns="http://www.w3.org/2000/svg" width="20" height="20" fill="none">
  <path fill="#BDBDBD" d="M9.921 12.188a2.188 2.188 0 0 0 2.18-2.378l-2.37 2.37c.063.005.126.008.19.008Zm7.241-8.954-.834-.834a.156.156 0 0 0-.221 0l-2.135 2.136c-1.178-.602-2.502-.903-3.973-.903-3.753 0-6.554 1.955-8.402 5.865a1.178 1.178 0 0 0 0 1.006c.738 1.555 1.627 2.801 2.667 3.74l-2.066 2.065a.156.156 0 0 0 0 .22l.834.834a.156.156 0 0 0 .22 0l13.91-13.908a.156.156 0 0 0 0-.221ZM6.484 10a3.437 3.437 0 0 1 5.056-3.033l-.95.95a2.189 2.189 0 0 0-2.752 2.752l-.95.95A3.42 3.42 0 0 1 6.485 10Z"/>
  <path fill="#BDBDBD" d="M18.404 9.496c-.688-1.448-1.506-2.628-2.455-3.542L13.133 8.77a3.439 3.439 0 0 1-4.44 4.44l-2.388 2.388c1.107.513 2.34.77 3.696.77 3.754 0 6.555-1.956 8.403-5.866a1.178 1.178 0 0 0 0-1.006Z"/>
</svg>
