<svg xmlns="http://www.w3.org/2000/svg" width="16" height="15" fill="none">
  <path fill="url(#a)" d="M8 14.434a.5.5 0 0 1-.305-.105c-2.78-2.16-4.696-4.02-6.036-5.856-1.71-2.345-2.1-4.51-1.16-6.436.67-1.375 2.595-2.5 4.846-1.845C6.418.502 7.354 1.166 8 2.077A4.936 4.936 0 0 1 10.655.192c2.246-.645 4.176.47 4.846 1.845.94 1.925.55 4.09-1.16 6.436-1.34 1.835-3.255 3.696-6.036 5.856a.5.5 0 0 1-.305.105ZM4.064 1.007A2.95 2.95 0 0 0 1.4 2.472c-.775 1.59-.425 3.36 1.07 5.406A28.571 28.571 0 0 0 8 13.298a28.57 28.57 0 0 0 5.53-5.415c1.501-2.05 1.846-3.82 1.071-5.406-.5-1-2-1.795-3.67-1.325a4 4 0 0 0-2.47 2.1.5.5 0 0 1-.926 0 3.966 3.966 0 0 0-2.47-2.1 3.656 3.656 0 0 0-1-.145Z"/>
  <defs>
    <linearGradient id="a" x1="-3.459" x2="19.909" y1="-9.021" y2="-3.286" gradientUnits="userSpaceOnUse">
      <stop stop-color="#976464"/>
      <stop offset="1" stop-color="#CFA5A5"/>
    </linearGradient>
  </defs>
</svg>
