<svg width="30" height="30" viewBox="0 0 30 30" fill="none" xmlns="http://www.w3.org/2000/svg">
<path d="M18.7501 7.5C18.7507 7.79206 18.6489 8.0751 18.4626 8.29999L12.8626 15L18.2626 21.7125C18.3664 21.8404 18.444 21.9875 18.4907 22.1454C18.5375 22.3033 18.5527 22.4689 18.5352 22.6327C18.5178 22.7965 18.4682 22.9552 18.3892 23.0998C18.3102 23.2443 18.2035 23.3718 18.0751 23.475C17.9472 23.5788 17.8001 23.6564 17.6422 23.7032C17.4843 23.7499 17.3186 23.7651 17.1549 23.7476C16.9911 23.7302 16.8323 23.6806 16.6878 23.6016C16.5432 23.5227 16.4157 23.4159 16.3126 23.2875L10.2751 15.7875C10.0912 15.5638 9.99072 15.2833 9.99072 14.9937C9.99072 14.7042 10.0912 14.4237 10.2751 14.2L16.5251 6.7C16.63 6.57342 16.7589 6.46879 16.9043 6.3921C17.0498 6.31541 17.2089 6.26817 17.3726 6.25307C17.5363 6.23798 17.7014 6.25533 17.8584 6.30414C18.0154 6.35294 18.1613 6.43224 18.2876 6.53749C18.431 6.65381 18.5468 6.80045 18.6268 6.96687C18.7068 7.13329 18.7489 7.31536 18.7501 7.5Z" fill="#976464"/>
</svg>
