<svg width="30" height="30" viewBox="0 0 30 30" fill="none" xmlns="http://www.w3.org/2000/svg">
<path d="M7.49925 11.2498C7.79131 11.2492 8.07436 11.3509 8.29925 11.5373L14.9992 17.1373L21.7117 11.7373C21.8396 11.6335 21.9867 11.5559 22.1447 11.5091C22.3026 11.4623 22.4682 11.4472 22.632 11.4647C22.7958 11.4821 22.9545 11.5317 23.099 11.6107C23.2436 11.6896 23.3711 11.7964 23.4742 11.9248C23.5781 12.0527 23.6556 12.1998 23.7024 12.3577C23.7492 12.5156 23.7643 12.6812 23.7469 12.845C23.7295 13.0088 23.6798 13.1675 23.6009 13.3121C23.5219 13.4566 23.4152 13.5841 23.2867 13.6873L15.7867 19.7248C15.5631 19.9086 15.2825 20.0092 14.993 20.0092C14.7035 20.0092 14.4229 19.9086 14.1992 19.7248L6.69925 13.4748C6.57268 13.3699 6.46805 13.241 6.39136 13.0956C6.31467 12.9501 6.26742 12.791 6.25233 12.6273C6.23723 12.4635 6.25459 12.2984 6.30339 12.1414C6.3522 11.9844 6.43149 11.8386 6.53675 11.7123C6.65306 11.5689 6.7997 11.4531 6.96613 11.3731C7.13255 11.2931 7.31462 11.251 7.49925 11.2498Z" fill="url(#paint0_linear_123_1198)"/>
<defs>
<linearGradient id="paint0_linear_123_1198" x1="27.5392" y1="25.4838" x2="4.86832" y2="15.4526" gradientUnits="userSpaceOnUse">
<stop stop-color="#976464"/>
<stop offset="1" stop-color="#CFA5A5"/>
</linearGradient>
</defs>
</svg>
