<svg xmlns="http://www.w3.org/2000/svg" width="19" height="19" fill="none">
  <g fill="#BDBDBD" clip-path="url(#a)">
    <path d="M18 3 10.875.624a.594.594 0 0 0-.781.563v1.781h-4.75a1.189 1.189 0 0 0-1.188 1.188v1.78a.594.594 0 0 0 1.188 0v-1.78h4.75v10.687h-4.75v-1.782a.594.594 0 0 0-1.188 0v1.782a1.189 1.189 0 0 0 1.188 1.187h4.75v1.781a.592.592 0 0 0 .504.587.593.593 0 0 0 .277-.023L18 16a.593.593 0 0 0 .406-.564V3.563A.593.593 0 0 0 18 2.999Zm-3.75 7.094h-1.188a.594.594 0 0 1 0-1.188h1.188a.594.594 0 1 1 0 1.188Z"/>
    <path d="M6.111 10.861a.594.594 0 0 0 .84.84L8.732 9.92a.596.596 0 0 0 0-.84L6.951 7.299a.594.594 0 1 0-.84.84l.768.767H1.188a.594.594 0 0 0 0 1.188h5.691l-.768.768Z"/>
  </g>
  <defs>
    <clipPath id="a">
      <path fill="#fff" d="M0 0h19v19H0z"/>
    </clipPath>
  </defs>
</svg>
